<svg version="1.1" xmlns="http://www.w3.org/2000/svg" width="480" height="480">
<path d="M0 0 C0.89115509 -0.00974854 1.78231018 -0.01949707 2.70046997 -0.02954102 C22.63293108 -0.20264286 41.86559565 0.06369901 61.4453125 4.23828125 C62.77079102 4.51115967 62.77079102 4.51115967 64.12304688 4.78955078 C105.34784078 13.49342708 143.65278781 33.55407357 174.4453125 62.23828125 C175.83675916 63.45166344 177.23239889 64.66025928 178.6328125 65.86328125 C185.12642006 71.55168147 190.72060083 77.62806502 196.12890625 84.36328125 C197.62026628 86.21427785 199.13192996 88.04918974 200.66796875 89.86328125 C211.37655764 102.55494215 219.73850793 116.5738543 227.4453125 131.23828125 C227.79303711 131.88893555 228.14076172 132.53958984 228.49902344 133.20996094 C239.66788692 154.35997462 246.75126165 178.69014258 250.4453125 202.23828125 C250.62787598 203.39384521 250.81043945 204.54940918 250.99853516 205.73999023 C252.59886637 217.00999862 252.84447883 228.17905615 252.8203125 239.55078125 C252.81949677 240.99969254 252.81949677 240.99969254 252.81866455 242.47787476 C252.75654087 266.55129834 249.41615617 289.15610162 242.4453125 312.23828125 C242.19442871 313.07343262 241.94354492 313.90858398 241.68505859 314.76904297 C231.64027637 347.38390177 213.65619439 377.32137709 190.4453125 402.23828125 C189.23193031 403.62972791 188.02333447 405.02536764 186.8203125 406.42578125 C181.13191228 412.91938881 175.05552873 418.51356958 168.3203125 423.921875 C166.4693159 425.41323503 164.63440401 426.92489871 162.8203125 428.4609375 C150.1286516 439.16952639 136.10973945 447.53147668 121.4453125 455.23828125 C120.7946582 455.58600586 120.14400391 455.93373047 119.47363281 456.29199219 C98.32361913 467.46085567 73.99345117 474.5442304 50.4453125 478.23828125 C49.28974854 478.42084473 48.13418457 478.6034082 46.94360352 478.79150391 C35.67359513 480.39183512 24.5045376 480.63744758 13.1328125 480.61328125 C12.16687164 480.61273743 11.20093079 480.6121936 10.20571899 480.6116333 C-5.69146444 480.57060916 -20.9742443 479.64585488 -36.5546875 476.23828125 C-37.54082031 476.02397461 -38.52695313 475.80966797 -39.54296875 475.58886719 C-80.68601851 466.32763679 -118.66455293 447.01341561 -149.5546875 418.23828125 C-150.94613416 417.02489906 -152.34177389 415.81630322 -153.7421875 414.61328125 C-160.2414509 408.91992651 -165.84238567 402.83961232 -171.25 396.09375 C-172.69580225 394.30242552 -174.16644909 392.53057919 -175.671875 390.7890625 C-207.31744649 353.8692291 -227.34870952 301.35876015 -227.79296875 252.68359375 C-227.8027626 251.79257462 -227.81255646 250.90155548 -227.82264709 249.98353577 C-228.06977464 221.65429212 -225.7888597 195.50365266 -217.5546875 168.23828125 C-217.17836182 166.9855542 -217.17836182 166.9855542 -216.79443359 165.70751953 C-203.42490392 122.29738749 -175.36083111 81.26686088 -139.5546875 53.23828125 C-138.56984375 52.44808594 -137.585 51.65789063 -136.5703125 50.84375 C-98.53859031 20.59941859 -48.96468094 0.44659656 0 0 Z " fill="#000000" transform="translate(227.5546875,-0.23828125)"/>
<path d="M0 0 C40.59 0 81.18 0 123 0 C123 8.91 123 17.82 123 27 C93.3 27 63.6 27 33 27 C33 38.88 33 50.76 33 63 C60.72 63 88.44 63 117 63 C117 71.91 117 80.82 117 90 C89.28 90 61.56 90 33 90 C33 104.52 33 119.04 33 134 C63.69 134 94.38 134 126 134 C126 142.91 126 151.82 126 161 C84.42 161 42.84 161 0 161 C0 107.87 0 54.74 0 0 Z " fill="#FEFEFE" transform="translate(94,163)"/>
<path d="M0 0 C33.04260579 -3.60864166 33.04260579 -3.60864166 42.06152344 1.85449219 C46.96293663 6.93028857 49.65390629 13.14948343 52.40283203 19.57177734 C54.97701127 25.0970945 58.38086617 30.03882649 61.76858521 35.09133911 C63.5230511 37.72151359 65.2284991 40.38202993 66.9296875 43.046875 C67.49929199 43.93213867 68.06889648 44.81740234 68.65576172 45.72949219 C70 48 70 48 71 51 C71.66 51 72.32 51 73 51 C73.27602051 50.26604004 73.55204102 49.53208008 73.83642578 48.77587891 C74.92068871 46.18920884 76.13377095 43.96013499 77.6171875 41.5859375 C78.13611572 40.7513501 78.65504395 39.9167627 79.18969727 39.05688477 C80.02392212 37.72935181 80.02392212 37.72935181 80.875 36.375 C81.44855225 35.45581787 82.02210449 34.53663574 82.61303711 33.58959961 C84.40386476 30.72334277 86.20106007 27.86117113 88 25 C88.5676709 24.09556152 89.1353418 23.19112305 89.72021484 22.25927734 C92.28792214 18.17035582 94.86005183 14.08422771 97.44140625 10.00390625 C97.84045166 9.37299072 98.23949707 8.7420752 98.65063477 8.09204102 C99.09592529 7.40166748 99.54121582 6.71129395 100 6 C100.52875732 4.93950439 101.05751465 3.87900879 101.60229492 2.78637695 C104 0 104 0 105.86146545 -0.52067566 C108.23731751 -0.6961561 110.54114519 -0.67450417 112.921875 -0.5859375 C114.21185394 -0.57320297 114.21185394 -0.57320297 115.52789307 -0.56021118 C118.26987962 -0.52667054 121.00890538 -0.4513951 123.75 -0.375 C125.61063455 -0.34490102 127.47131529 -0.31752509 129.33203125 -0.29296875 C133.88915852 -0.2268776 138.44407766 -0.1233553 143 0 C139.55260582 6.45905825 135.74357755 12.56482406 131.640625 18.625 C130.3935618 20.48155699 129.14682874 22.33833578 127.90039062 24.1953125 C127.25851807 25.14954102 126.61664551 26.10376953 125.95532227 27.08691406 C120.82106711 34.73605035 115.74437745 42.42369991 110.66357422 50.10839844 C109.36813085 52.06594261 108.07087662 54.02228941 106.77197266 55.97753906 C104.85930359 58.85720282 102.9524824 61.74065991 101.046875 64.625 C100.46677673 65.49576172 99.88667847 66.36652344 99.28900146 67.26367188 C98.7537384 68.07642578 98.21847534 68.88917969 97.66699219 69.7265625 C97.19847839 70.43377441 96.7299646 71.14098633 96.24725342 71.86962891 C94.88020303 74.20461921 93.82646431 76.42159495 93 79 C94.06029326 81.59029239 94.06029326 81.59029239 96.0625 84.125 C96.81273437 85.17816406 97.56296875 86.23132813 98.3359375 87.31640625 C98.76100586 87.9005127 99.18607422 88.48461914 99.62402344 89.08642578 C101.65418864 91.90978185 103.60132665 94.78792058 105.55639648 97.66357422 C107.22290819 100.11457616 108.89747048 102.55989754 110.57421875 105.00390625 C114.42496058 110.61879719 118.26899651 116.23826343 122.11279297 121.85791016 C124.88163578 125.90545188 127.65217754 129.95181266 130.42578125 133.99609375 C148 159.62945846 148 159.62945846 148 161 C142.45026865 161.27328223 136.9044972 161.47210322 131.34960938 161.60424805 C129.46349857 161.65935118 127.57785319 161.7342651 125.69335938 161.82983398 C110.25493447 162.5927794 110.25493447 162.5927794 105.34448242 159.12426758 C103.18991237 156.21200382 101.63975004 153.23103566 100 150 C98.6652248 147.89717179 97.27407756 145.83927912 95.87515259 143.77864075 C94.34792828 141.52815746 92.85266738 139.25937153 91.36523438 136.98242188 C89.32122045 133.85553012 87.27477154 130.73028662 85.22460938 127.60742188 C84.2289419 126.088689 83.23349159 124.56981372 82.23828125 123.05078125 C81.78608719 122.36099686 81.33389313 121.67121246 80.86799622 120.96052551 C78.19823337 116.87473123 75.60984161 112.75393775 73.10490417 108.56462097 C72.07055704 106.83834409 72.07055704 106.83834409 70 106 C69.58908867 107.10458809 69.58908867 107.10458809 69.1698761 108.23149109 C68.07122799 110.83143913 66.85250447 112.95991098 65.28198242 115.29614258 C64.73769089 116.11081497 64.19339935 116.92548737 63.63261414 117.7648468 C63.04615616 118.63264267 62.45969818 119.50043854 61.85546875 120.39453125 C61.24866776 121.30071701 60.64186676 122.20690277 60.01667786 123.14054871 C58.07796436 126.03414235 56.13301296 128.92347463 54.1875 131.8125 C52.25387848 134.69158695 50.32158371 137.5715553 48.39045715 140.45231628 C47.19009226 142.24213165 45.98810551 144.03086074 44.78422546 145.8183136 C44.23047745 146.64244247 43.67672943 147.46657135 43.10620117 148.31567383 C42.57088272 149.09983673 42.03556427 149.88399963 41.48402405 150.69192505 C39.96803717 152.96254844 39.96803717 152.96254844 38.80686951 155.35958862 C36.08522294 160.62792476 36.08522294 160.62792476 33.02589417 161.67683411 C30.56242046 161.92843315 28.23492983 161.90151169 25.76171875 161.78125 C24.88095169 161.76993042 24.00018463 161.75861084 23.09272766 161.74694824 C20.28874006 161.70227979 17.48993186 161.60195033 14.6875 161.5 C12.78327717 161.45985999 10.87897389 161.4233601 8.97460938 161.390625 C4.31442084 161.3025772 -0.34191271 161.16460791 -5 161 C-3.68195638 157.41893778 -2.10066301 154.40931265 0.02734375 151.24609375 C0.64472412 150.3238501 1.26210449 149.40160645 1.89819336 148.45141602 C2.90765015 146.95952759 2.90765015 146.95952759 3.9375 145.4375 C4.64334229 144.3868335 5.34918457 143.33616699 6.07641602 142.25366211 C8.37712085 138.83092226 10.68806647 135.4151611 13 132 C13.77997922 130.84670086 14.55992719 129.69338058 15.33984375 128.54003906 C17.30714343 125.63167428 19.27668922 122.72483895 21.2472229 119.81866455 C22.43748362 118.06252417 23.62634319 116.30544061 24.81518555 114.54833984 C28.43087403 109.21117935 32.06388981 103.8890539 35.77333069 98.61647034 C37.38920185 96.31789356 38.99460623 94.01210223 40.59939575 91.70578003 C41.72531339 90.09775713 42.86725827 88.50099425 44.00952148 86.90454102 C44.68184814 85.93701904 45.3541748 84.96949707 46.046875 83.97265625 C46.64338867 83.12968994 47.23990234 82.28672363 47.85449219 81.41821289 C49.29655671 78.3739569 48.89121332 77.2017317 48 74 C46.93027585 71.87505795 46.93027585 71.87505795 45.52587891 69.83764648 C45.00605942 69.04656998 44.48623993 68.25549347 43.95066833 67.44044495 C43.38171341 66.59255905 42.81275848 65.74467316 42.2265625 64.87109375 C41.63492813 63.97619736 41.04329376 63.08130096 40.43373108 62.1592865 C38.50518654 59.24683267 36.56523519 56.34217575 34.625 53.4375 C33.30254195 51.44457074 31.98068514 49.45124239 30.65942383 47.45751953 C24.76996802 38.58381791 18.84331952 29.73591123 12.84765625 20.93359375 C12.39638367 20.27090988 11.94511108 19.60822601 11.48016357 18.92546082 C9.42451012 15.91058366 7.36147192 12.90117004 5.28564453 9.90014648 C4.57649902 8.86833252 3.86735352 7.83651855 3.13671875 6.7734375 C2.21959106 5.44965088 2.21959106 5.44965088 1.28393555 4.09912109 C0 2 0 2 0 0 Z " fill="#FDFDFD" transform="translate(238,163)"/>
</svg>
